<?xml version="1.0" encoding="UTF-8"?>
<svg width="4px" height="16px" viewBox="0 0 4 16" version="1.1" xmlns="http://www.w3.org/2000/svg" xmlns:xlink="http://www.w3.org/1999/xlink">
    <title>Shape</title>
    <g id="Page-1" stroke="none" stroke-width="1" fill="none" fill-rule="evenodd">
        <g id="1.0-Style-Guide" transform="translate(-847.000000, -750.000000)" fill="#FFFFFF">
            <g id="Group-9" transform="translate(491.000000, 730.000000)">
                <g id="more" transform="translate(358.000000, 28.000000) rotate(-90.000000) translate(-358.000000, -28.000000) translate(350.000000, 26.000000)">
                    <path d="M8,6 C9.1,6 10,6.9 10,8 C10,9.1 9.1,10 8,10 C6.9,10 6,9.1 6,8 C6,6.9 6.9,6 8,6 L8,6 Z M8,4 C6.9,4 6,3.1 6,2 C6,0.9 6.9,0 8,0 C9.1,0 10,0.9 10,2 C10,3.1 9.1,4 8,4 L8,4 Z M8,-2 C6.9,-2 6,-2.9 6,-4 C6,-5.1 6.9,-6 8,-6 C9.1,-6 10,-5.1 10,-4 C10,-2.9 9.1,-2 8,-2 L8,-2 Z" id="Shape" transform="translate(8.000000, 2.000000) scale(1, -1) rotate(-90.000000) translate(-8.000000, -2.000000) "></path>
                </g>
            </g>
        </g>
    </g>
</svg>